<svg class="main-svg" xmlns="http://www.w3.org/2000/svg" xmlns:xlink="http://www.w3.org/1999/xlink" width="2000" height="380" style="" viewBox="0 0 2000 380"><rect x="0" y="0" width="2000" height="380" style="fill: rgb(255, 255, 255); fill-opacity: 1;"/><defs id="defs-dc02a9"><g class="clips"><clipPath id="clipdc02a9xyplot" class="plotclip"><rect width="385.605" height="199"/></clipPath><clipPath id="clipdc02a9x2y2plot" class="plotclip"><rect width="385.605" height="199"/></clipPath><clipPath id="clipdc02a9x3y3plot" class="plotclip"><rect width="385.60500000000013" height="199"/></clipPath><clipPath id="clipdc02a9x4y4plot" class="plotclip"><rect width="385.60500000000013" height="199"/></clipPath><clipPath class="axesclip" id="clipdc02a9x"><rect x="40" y="0" width="385.605" height="380"/></clipPath><clipPath class="axesclip" id="clipdc02a9y"><rect x="0" y="81" width="2000" height="199"/></clipPath><clipPath class="axesclip" id="clipdc02a9xy"><rect x="40" y="81" width="385.605" height="199"/></clipPath><clipPath class="axesclip" id="clipdc02a9y2"><rect x="0" y="81" width="2000" height="199"/></clipPath><clipPath class="axesclip" id="clipdc02a9xy2"><rect x="40" y="81" width="385.605" height="199"/></clipPath><clipPath class="axesclip" id="clipdc02a9y3"><rect x="0" y="81" width="2000" height="199"/></clipPath><clipPath class="axesclip" id="clipdc02a9xy3"><rect x="40" y="81" width="385.605" height="199"/></clipPath><clipPath class="axesclip" id="clipdc02a9y4"><rect x="0" y="81" width="2000" height="199"/></clipPath><clipPath class="axesclip" id="clipdc02a9xy4"><rect x="40" y="81" width="385.605" height="199"/></clipPath><clipPath class="axesclip" id="clipdc02a9x2"><rect x="538.465" y="0" width="385.605" height="380"/></clipPath><clipPath class="axesclip" id="clipdc02a9x2y"><rect x="538.465" y="81" width="385.605" height="199"/></clipPath><clipPath class="axesclip" id="clipdc02a9x2y2"><rect x="538.465" y="81" width="385.605" height="199"/></clipPath><clipPath class="axesclip" id="clipdc02a9x2y3"><rect x="538.465" y="81" width="385.605" height="199"/></clipPath><clipPath class="axesclip" id="clipdc02a9x2y4"><rect x="538.465" y="81" width="385.605" height="199"/></clipPath><clipPath class="axesclip" id="clipdc02a9x3"><rect x="1036.93" y="0" width="385.60500000000013" height="380"/></clipPath><clipPath class="axesclip" id="clipdc02a9x3y"><rect x="1036.93" y="81" width="385.60500000000013" height="199"/></clipPath><clipPath class="axesclip" id="clipdc02a9x3y2"><rect x="1036.93" y="81" width="385.60500000000013" height="199"/></clipPath><clipPath class="axesclip" id="clipdc02a9x3y3"><rect x="1036.93" y="81" width="385.60500000000013" height="199"/></clipPath><clipPath class="axesclip" id="clipdc02a9x3y4"><rect x="1036.93" y="81" width="385.60500000000013" height="199"/></clipPath><clipPath class="axesclip" id="clipdc02a9x4"><rect x="1535.3949999999998" y="0" width="385.60500000000013" height="380"/></clipPath><clipPath class="axesclip" id="clipdc02a9x4y"><rect x="1535.3949999999998" y="81" width="385.60500000000013" height="199"/></clipPath><clipPath class="axesclip" id="clipdc02a9x4y2"><rect x="1535.3949999999998" y="81" width="385.60500000000013" height="199"/></clipPath><clipPath class="axesclip" id="clipdc02a9x4y3"><rect x="1535.3949999999998" y="81" width="385.60500000000013" height="199"/></clipPath><clipPath class="axesclip" id="clipdc02a9x4y4"><rect x="1535.3949999999998" y="81" width="385.60500000000013" height="199"/></clipPath></g><g class="gradients"/><g class="patterns"/></defs><g class="bglayer"><rect class="bg" x="40" y="81" width="385.605" height="199" style="fill: rgb(229, 236, 246); fill-opacity: 1; stroke-width: 0;"/><rect class="bg" x="538.465" y="81" width="385.605" height="199" style="fill: rgb(229, 236, 246); fill-opacity: 1; stroke-width: 0;"/><rect class="bg" x="1036.93" y="81" width="385.60500000000013" height="199" style="fill: rgb(229, 236, 246); fill-opacity: 1; stroke-width: 0;"/><rect class="bg" x="1535.3949999999998" y="81" width="385.60500000000013" height="199" style="fill: rgb(229, 236, 246); fill-opacity: 1; stroke-width: 0;"/></g><g class="layer-below"><g class="imagelayer"/><g class="shapelayer"/></g><g class="cartesianlayer"><g class="subplot xy"><g class="layer-subplot"><g class="shapelayer"/><g class="imagelayer"/></g><g class="minor-gridlayer"><g class="x"/><g class="y"/></g><g class="gridlayer"><g class="x"><path class="xgrid crisp" transform="translate(53.28,0)" d="M0,81v199" style="stroke: rgb(255, 255, 255); stroke-opacity: 1; stroke-width: 1px;"/><path class="xgrid crisp" transform="translate(95.72,0)" d="M0,81v199" style="stroke: rgb(255, 255, 255); stroke-opacity: 1; stroke-width: 1px;"/><path class="xgrid crisp" transform="translate(123.54,0)" d="M0,81v199" style="stroke: rgb(255, 255, 255); stroke-opacity: 1; stroke-width: 1px;"/><path class="xgrid crisp" transform="translate(147.31,0)" d="M0,81v199" style="stroke: rgb(255, 255, 255); stroke-opacity: 1; stroke-width: 1px;"/><path class="xgrid crisp" transform="translate(197.67,0)" d="M0,81v199" style="stroke: rgb(255, 255, 255); stroke-opacity: 1; stroke-width: 1px;"/><path class="xgrid crisp" transform="translate(238.81,0)" d="M0,81v199" style="stroke: rgb(255, 255, 255); stroke-opacity: 1; stroke-width: 1px;"/><path class="xgrid crisp" transform="translate(261.27,0)" d="M0,81v199" style="stroke: rgb(255, 255, 255); stroke-opacity: 1; stroke-width: 1px;"/><path class="xgrid crisp" transform="translate(286.52,0)" d="M0,81v199" style="stroke: rgb(255, 255, 255); stroke-opacity: 1; stroke-width: 1px;"/><path class="xgrid crisp" transform="translate(334.23,0)" d="M0,81v199" style="stroke: rgb(255, 255, 255); stroke-opacity: 1; stroke-width: 1px;"/><path class="xgrid crisp" transform="translate(368.62,0)" d="M0,81v199" style="stroke: rgb(255, 255, 255); stroke-opacity: 1; stroke-width: 1px;"/></g><g class="y"><path class="ygrid crisp" transform="translate(0,223.51)" d="M40,0h385.605" style="stroke: rgb(255, 255, 255); stroke-opacity: 1; stroke-width: 1px;"/><path class="ygrid crisp" transform="translate(0,173.67000000000002)" d="M40,0h385.605" style="stroke: rgb(255, 255, 255); stroke-opacity: 1; stroke-width: 1px;"/><path class="ygrid crisp" transform="translate(0,123.84)" d="M40,0h385.605" style="stroke: rgb(255, 255, 255); stroke-opacity: 1; stroke-width: 1px;"/></g></g><g class="zerolinelayer"><path class="yzl zl crisp" transform="translate(0,273.34000000000003)" d="M40,0h385.605" style="stroke: rgb(255, 255, 255); stroke-opacity: 1; stroke-width: 2px;"/></g><path class="xlines-below"/><path class="ylines-below"/><g class="overlines-below"/><g class="xaxislayer-below"/><g class="yaxislayer-below"/><g class="overaxes-below"/><g class="plot" transform="translate(40,81)" clip-path="url(#clipdc02a9xyplot)"><g class="scatterlayer mlayer"><g class="trace scatter trace841712" style="stroke-miterlimit: 2; opacity: 1;"><g class="fills"/><g class="errorbars"/><g class="lines"><path class="js-line" d="M0,189.05L6.66,188.3L8.01,187.01L9.27,187.41L10.62,186.96L13.28,186.61L14.58,183.67L23.94,182.47L25.16,181.72L27.82,178.29L29.17,175.64L35.83,174L37.13,172.16L41.05,170.71L42.4,168.82L43.71,169.37L45.06,169.12L46.36,168.42L47.71,166.82L54.37,159.6L55.72,158.55L56.94,157.16L58.29,150.38L59.6,147.19L60.94,147.29L66.26,147.39L67.6,149.98L70.26,148.69L71.61,138.22L74.22,137.17L75.53,135.93L76.88,135.53L78.18,137.17L79.53,133.04L80.88,137.67L82.19,136.13L83.54,136.18L84.84,134.58L86.19,135.08L87.54,131.59L88.76,131.44L92.77,130.3L94.07,126.66L95.42,126.56L96.77,128.95L99.43,127.9L100.73,124.37L104.65,120.58L106,120.28L108.66,118.64L109.96,117.19L115.32,111.86L116.62,112.95L120.54,111.96L121.89,111.01L124.54,108.97L125.85,109.37L127.2,109.12L128.55,105.53L129.86,103.98L131.2,101.04L133.86,99.85L135.21,97.41L136.47,93.82L137.82,94.27L140.48,93.17L141.78,91.43L144.48,92.03L145.79,90.88L147.14,90.43L148.44,89.04L149.79,87.99L151.14,88.09L157.67,85.35L159.02,84.85L160.37,85.6L161.68,84.4L167.03,83.5L168.25,93.02L172.26,92.27L173.56,91.63L177.57,90.48L178.92,93.22L181.57,91.23L182.92,90.53L185.49,90.58L186.8,91.03L190.8,87.64L192.15,87.44L193.46,87.39L194.8,83.45L197.46,82.56L198.81,82.11L201.42,80.76L202.73,80.81L204.08,80.71L205.38,84.3L206.73,85.25L208.08,84.65L209.39,85.8L210.74,85.3L215.96,85.35L217.31,85.95L218.62,86.69L219.97,85.95L221.27,85.85L222.62,86.69L230.63,84.45L231.85,83.2L241.17,81.81L242.52,81.21L246.52,80.41L247.74,80.51L250.4,79.67L251.74,79.07L253.05,77.87L254.4,79.42L257.06,78.52L258.4,76.33L259.71,77.22L261.06,74.98L262.41,74.28L263.67,72.34L267.68,71.44L268.98,70.55L271.68,70.3L272.99,69.7L275.64,69.1L276.99,69.8L283.57,69L284.87,67.51L287.57,66.16L288.88,65.71L291.53,64.42L292.88,64.47L294.23,64.37L295.45,65.56L299.46,64.37L300.76,63.87L303.46,62.57L304.77,61.83L306.12,60.88L307.42,58.14L308.77,57.94L310.12,56L312.69,56.05L314,50.71L322,44.63L323.31,44.53L324.66,45.43L326.01,44.04L331.28,41.69L332.58,40.75L335.28,39.25L336.59,37.61L339.24,36.71L340.59,36.06L344.51,33.27L345.82,32.23L348.47,31.43L349.82,31.33L351.17,31.28L352.48,29.43L357.83,26.39L359.05,26.2L361.71,24.55L363.06,23.8L367.06,21.76L368.37,20.91L372.37,17.97L373.72,15.08L374.94,14.98L376.29,13.69L381.6,11.99L382.95,10.65L385.61,9.95" style="vector-effect: none; fill: none; stroke: rgb(0, 0, 0); stroke-opacity: 1; stroke-width: 2px; opacity: 1;"/></g><g class="points"/><g class="text"/></g></g></g><g class="overplot"/><path class="xlines-above crisp" d="M0,0" style="fill: none;"/><path class="ylines-above crisp" d="M0,0" style="fill: none;"/><g class="overlines-above"/><g class="xaxislayer-above"><g class="xtick"><text text-anchor="start" x="0" y="292" transform="translate(53.28,0) rotate(45,0,286.5)" style="font-family: 'Open Sans', verdana, arial, sans-serif; font-size: 11px; fill: rgb(42, 63, 95); fill-opacity: 1; white-space: pre; opacity: 1;">  2000-06 (0.1.99a)</text></g><g class="xtick"><text text-anchor="start" x="0" y="292" style="font-family: 'Open Sans', verdana, arial, sans-serif; font-size: 11px; fill: rgb(42, 63, 95); fill-opacity: 1; white-space: pre; opacity: 1;" transform="translate(95.72,0) rotate(45,0,286.5)">  2003-02 (0.5)</text></g><g class="xtick"><text text-anchor="start" x="0" y="292" style="font-family: 'Open Sans', verdana, arial, sans-serif; font-size: 11px; fill: rgb(42, 63, 95); fill-opacity: 1; white-space: pre; opacity: 1;" transform="translate(123.54,0) rotate(45,0,286.5)">  2004-11 (0.8)</text></g><g class="xtick"><text text-anchor="start" x="0" y="292" style="font-family: 'Open Sans', verdana, arial, sans-serif; font-size: 11px; fill: rgb(42, 63, 95); fill-opacity: 1; white-space: pre; opacity: 1;" transform="translate(147.31,0) rotate(45,0,286.5)">  2006-05 (0.8.5)</text></g><g class="xtick"><text text-anchor="start" x="0" y="292" style="font-family: 'Open Sans', verdana, arial, sans-serif; font-size: 11px; fill: rgb(42, 63, 95); fill-opacity: 1; white-space: pre; opacity: 1;" transform="translate(197.67,0) rotate(45,0,286.5)">  2009-07 (1.0)</text></g><g class="xtick"><text text-anchor="start" x="0" y="292" style="font-family: 'Open Sans', verdana, arial, sans-serif; font-size: 11px; fill: rgb(42, 63, 95); fill-opacity: 1; white-space: pre; opacity: 1;" transform="translate(238.81,0) rotate(45,0,286.5)">  2012-02 (2.0)</text></g><g class="xtick"><text text-anchor="start" x="0" y="292" style="font-family: 'Open Sans', verdana, arial, sans-serif; font-size: 11px; fill: rgb(42, 63, 95); fill-opacity: 1; white-space: pre; opacity: 1;" transform="translate(261.27,0) rotate(45,0,286.5)">  2013-07 (2.1)</text></g><g class="xtick"><text text-anchor="start" x="0" y="292" style="font-family: 'Open Sans', verdana, arial, sans-serif; font-size: 11px; fill: rgb(42, 63, 95); fill-opacity: 1; white-space: pre; opacity: 1;" transform="translate(286.52,0) rotate(45,0,286.5)">  2015-02 (2.2)</text></g><g class="xtick"><text text-anchor="start" x="0" y="292" style="font-family: 'Open Sans', verdana, arial, sans-serif; font-size: 11px; fill: rgb(42, 63, 95); fill-opacity: 1; white-space: pre; opacity: 1;" transform="translate(334.23,0) rotate(45,0,286.5)">  2018-02 (3.0)</text></g><g class="xtick"><text text-anchor="start" x="0" y="292" style="font-family: 'Open Sans', verdana, arial, sans-serif; font-size: 11px; fill: rgb(42, 63, 95); fill-opacity: 1; white-space: pre; opacity: 1;" transform="translate(368.62,0) rotate(45,0,286.5)">  2020-04 (3.0.10)</text></g><g class="xtick"><text text-anchor="start" x="0" y="292" style="font-family: 'Open Sans', verdana, arial, sans-serif; font-size: 11px; fill: rgb(42, 63, 95); fill-opacity: 1; white-space: pre; opacity: 1;" transform="translate(425.61,0) rotate(45,0,286.5)">  2023-11 (3.0.20)</text></g></g><g class="yaxislayer-above"><g class="ytick"><text text-anchor="end" x="39" y="4.199999999999999" transform="translate(0,273.34000000000003)" style="font-family: 'Open Sans', verdana, arial, sans-serif; font-size: 12px; fill: rgb(42, 63, 95); fill-opacity: 1; white-space: pre; opacity: 1;">0</text></g><g class="ytick"><text text-anchor="end" x="39" y="4.199999999999999" style="font-family: 'Open Sans', verdana, arial, sans-serif; font-size: 12px; fill: rgb(42, 63, 95); fill-opacity: 1; white-space: pre; opacity: 1;" transform="translate(0,223.51)">1000</text></g><g class="ytick"><text text-anchor="end" x="39" y="4.199999999999999" style="font-family: 'Open Sans', verdana, arial, sans-serif; font-size: 12px; fill: rgb(42, 63, 95); fill-opacity: 1; white-space: pre; opacity: 1;" transform="translate(0,173.67000000000002)">2000</text></g><g class="ytick"><text text-anchor="end" x="39" y="4.199999999999999" style="font-family: 'Open Sans', verdana, arial, sans-serif; font-size: 12px; fill: rgb(42, 63, 95); fill-opacity: 1; white-space: pre; opacity: 1;" transform="translate(0,123.84)">3000</text></g></g><g class="overaxes-above"/></g><g class="subplot x2y2"><g class="layer-subplot"><g class="shapelayer"/><g class="imagelayer"/></g><g class="minor-gridlayer"><g class="x2"/><g class="y2"/></g><g class="gridlayer"><g class="x2"><path class="x2grid crisp" transform="translate(551.745,0)" d="M0,81v199" style="stroke: rgb(255, 255, 255); stroke-opacity: 1; stroke-width: 1px;"/><path class="x2grid crisp" transform="translate(594.1850000000001,0)" d="M0,81v199" style="stroke: rgb(255, 255, 255); stroke-opacity: 1; stroke-width: 1px;"/><path class="x2grid crisp" transform="translate(622.005,0)" d="M0,81v199" style="stroke: rgb(255, 255, 255); stroke-opacity: 1; stroke-width: 1px;"/><path class="x2grid crisp" transform="translate(645.7750000000001,0)" d="M0,81v199" style="stroke: rgb(255, 255, 255); stroke-opacity: 1; stroke-width: 1px;"/><path class="x2grid crisp" transform="translate(696.135,0)" d="M0,81v199" style="stroke: rgb(255, 255, 255); stroke-opacity: 1; stroke-width: 1px;"/><path class="x2grid crisp" transform="translate(737.2750000000001,0)" d="M0,81v199" style="stroke: rgb(255, 255, 255); stroke-opacity: 1; stroke-width: 1px;"/><path class="x2grid crisp" transform="translate(759.735,0)" d="M0,81v199" style="stroke: rgb(255, 255, 255); stroke-opacity: 1; stroke-width: 1px;"/><path class="x2grid crisp" transform="translate(784.985,0)" d="M0,81v199" style="stroke: rgb(255, 255, 255); stroke-opacity: 1; stroke-width: 1px;"/><path class="x2grid crisp" transform="translate(832.695,0)" d="M0,81v199" style="stroke: rgb(255, 255, 255); stroke-opacity: 1; stroke-width: 1px;"/><path class="x2grid crisp" transform="translate(867.085,0)" d="M0,81v199" style="stroke: rgb(255, 255, 255); stroke-opacity: 1; stroke-width: 1px;"/></g><g class="y2"><path class="y2grid crisp" transform="translate(0,226.47)" d="M538.465,0h385.605" style="stroke: rgb(255, 255, 255); stroke-opacity: 1; stroke-width: 1px;"/><path class="y2grid crisp" transform="translate(0,180.01999999999998)" d="M538.465,0h385.605" style="stroke: rgb(255, 255, 255); stroke-opacity: 1; stroke-width: 1px;"/><path class="y2grid crisp" transform="translate(0,133.57)" d="M538.465,0h385.605" style="stroke: rgb(255, 255, 255); stroke-opacity: 1; stroke-width: 1px;"/><path class="y2grid crisp" transform="translate(0,87.12)" d="M538.465,0h385.605" style="stroke: rgb(255, 255, 255); stroke-opacity: 1; stroke-width: 1px;"/></g></g><g class="zerolinelayer"><path class="y2zl zl crisp" transform="translate(0,272.91999999999996)" d="M538.465,0h385.605" style="stroke: rgb(255, 255, 255); stroke-opacity: 1; stroke-width: 2px;"/></g><path class="xlines-below"/><path class="ylines-below"/><g class="overlines-below"/><g class="xaxislayer-below"/><g class="yaxislayer-below"/><g class="overaxes-below"/><g class="plot" transform="translate(538.465,81)" clip-path="url(#clipdc02a9x2y2plot)"><g class="scatterlayer mlayer"><g class="trace scatter trace62a70d" style="stroke-miterlimit: 2; opacity: 1;"><g class="fills"/><g class="errorbars"/><g class="lines"><path class="js-line" d="M0,189.05L6.66,188.6L8.01,186.59L9.27,186.64L10.62,185.37L13.28,185.03L14.58,183.46L23.94,182.07L25.16,180.96L29.17,174.03L30.47,173.49L35.83,171.19L37.13,169.34L42.4,167.46L43.71,168.59L47.71,165.87L49.06,167.17L51.72,164.17L53.02,161.84L56.94,155.32L58.29,148.53L59.6,145.82L60.94,145.35L63.6,142.81L64.95,141.92L66.26,141.36L67.6,143.18L70.26,140.5L71.61,135.18L74.22,132.87L75.53,130.83L76.88,129.27L78.18,130.29L79.53,126.6L80.88,131.02L82.19,127.62L83.54,127.31L84.84,125.72L86.19,125.35L87.54,122.15L88.76,121.66L92.77,117.77L94.07,111.84L95.42,111.13L96.77,113.89L106,105.57L107.31,104.81L109.96,103.63L111.31,102.33L113.97,99.24L115.32,79.96L116.62,81.39L117.97,80.4L119.32,80.11L120.54,74.31L123.2,70.11L124.54,69.04L128.55,66.07L129.86,65.07L131.2,83.65L132.51,82.96L133.86,81.82L135.21,78.91L137.82,74.7L139.13,74.09L147.14,72.19L148.44,70.93L149.79,70L151.14,70.58L153.71,69.86L155.02,70.62L156.37,66.62L157.67,56.87L159.02,55.89L160.37,59.12L164.33,58L165.68,59.05L168.25,65.89L169.6,66.12L170.91,66.7L172.26,66.24L174.91,65.47L176.26,65.51L177.57,64.82L178.92,68.7L181.57,66.47L182.92,65.56L186.8,63.84L188.14,64.02L189.45,59.54L190.8,58.01L193.46,58.06L194.8,56.52L197.46,54.73L198.81,54.69L204.08,52.14L205.38,52.96L206.73,53.18L208.08,51.94L213.39,49.16L214.74,49.18L217.31,49.1L218.62,51.92L226.63,49.51L227.93,47.89L230.63,46.8L231.85,44.6L234.51,44.88L235.86,44.06L237.16,44.52L238.51,43.57L242.52,41.69L243.82,41.87L245.17,41.52L246.52,43.81L250.4,42.55L251.74,41.9L253.05,41.28L254.4,56.34L258.4,54.45L259.71,56.1L261.06,53.95L262.41,54.4L263.67,55.42L265.02,55.05L271.68,52.39L272.99,51.83L278.34,50.96L279.56,51.61L284.87,49.54L286.22,48.72L288.88,48.12L290.23,47.21L291.53,46.34L292.88,46.47L294.23,45.87L295.45,46.65L299.46,45.63L300.76,45.59L303.46,45.02L304.77,44.33L306.12,43.08L307.42,39.41L310.12,38.36L311.34,38.07L315.34,38.36L316.65,37.48L322,33.91L323.31,33.76L324.66,34.53L326.01,33.47L327.27,33.74L328.62,33.17L331.28,32.78L332.58,32.07L337.94,29.44L339.24,28.69L343.16,27.15L344.51,26.53L347.17,25.46L348.47,25.11L351.17,25.55L352.48,24.94L359.05,22.67L360.4,21.02L365.71,19.58L367.06,19L368.37,18.74L369.72,17.61L372.37,16.5L373.72,14.56L377.6,12.99L378.94,12.66L381.6,11.93L382.95,11.09L385.61,9.95" style="vector-effect: none; fill: none; stroke: rgb(0, 0, 0); stroke-opacity: 1; stroke-width: 2px; opacity: 1;"/></g><g class="points"/><g class="text"/></g></g></g><g class="overplot"/><path class="xlines-above crisp" d="M0,0" style="fill: none;"/><path class="ylines-above crisp" d="M0,0" style="fill: none;"/><g class="overlines-above"/><g class="xaxislayer-above"><g class="x2tick"><text text-anchor="start" x="0" y="292" transform="translate(551.745,0) rotate(45,0,286.5)" style="font-family: 'Open Sans', verdana, arial, sans-serif; font-size: 11px; fill: rgb(42, 63, 95); fill-opacity: 1; white-space: pre; opacity: 1;">  2000-06 (0.1.99a)</text></g><g class="x2tick"><text text-anchor="start" x="0" y="292" style="font-family: 'Open Sans', verdana, arial, sans-serif; font-size: 11px; fill: rgb(42, 63, 95); fill-opacity: 1; white-space: pre; opacity: 1;" transform="translate(594.1850000000001,0) rotate(45,0,286.5)">  2003-02 (0.5)</text></g><g class="x2tick"><text text-anchor="start" x="0" y="292" style="font-family: 'Open Sans', verdana, arial, sans-serif; font-size: 11px; fill: rgb(42, 63, 95); fill-opacity: 1; white-space: pre; opacity: 1;" transform="translate(622.005,0) rotate(45,0,286.5)">  2004-11 (0.8)</text></g><g class="x2tick"><text text-anchor="start" x="0" y="292" style="font-family: 'Open Sans', verdana, arial, sans-serif; font-size: 11px; fill: rgb(42, 63, 95); fill-opacity: 1; white-space: pre; opacity: 1;" transform="translate(645.7750000000001,0) rotate(45,0,286.5)">  2006-05 (0.8.5)</text></g><g class="x2tick"><text text-anchor="start" x="0" y="292" style="font-family: 'Open Sans', verdana, arial, sans-serif; font-size: 11px; fill: rgb(42, 63, 95); fill-opacity: 1; white-space: pre; opacity: 1;" transform="translate(696.135,0) rotate(45,0,286.5)">  2009-07 (1.0)</text></g><g class="x2tick"><text text-anchor="start" x="0" y="292" style="font-family: 'Open Sans', verdana, arial, sans-serif; font-size: 11px; fill: rgb(42, 63, 95); fill-opacity: 1; white-space: pre; opacity: 1;" transform="translate(737.2750000000001,0) rotate(45,0,286.5)">  2012-02 (2.0)</text></g><g class="x2tick"><text text-anchor="start" x="0" y="292" style="font-family: 'Open Sans', verdana, arial, sans-serif; font-size: 11px; fill: rgb(42, 63, 95); fill-opacity: 1; white-space: pre; opacity: 1;" transform="translate(759.735,0) rotate(45,0,286.5)">  2013-07 (2.1)</text></g><g class="x2tick"><text text-anchor="start" x="0" y="292" style="font-family: 'Open Sans', verdana, arial, sans-serif; font-size: 11px; fill: rgb(42, 63, 95); fill-opacity: 1; white-space: pre; opacity: 1;" transform="translate(784.985,0) rotate(45,0,286.5)">  2015-02 (2.2)</text></g><g class="x2tick"><text text-anchor="start" x="0" y="292" style="font-family: 'Open Sans', verdana, arial, sans-serif; font-size: 11px; fill: rgb(42, 63, 95); fill-opacity: 1; white-space: pre; opacity: 1;" transform="translate(832.695,0) rotate(45,0,286.5)">  2018-02 (3.0)</text></g><g class="x2tick"><text text-anchor="start" x="0" y="292" style="font-family: 'Open Sans', verdana, arial, sans-serif; font-size: 11px; fill: rgb(42, 63, 95); fill-opacity: 1; white-space: pre; opacity: 1;" transform="translate(867.085,0) rotate(45,0,286.5)">  2020-04 (3.0.10)</text></g><g class="x2tick"><text text-anchor="start" x="0" y="292" style="font-family: 'Open Sans', verdana, arial, sans-serif; font-size: 11px; fill: rgb(42, 63, 95); fill-opacity: 1; white-space: pre; opacity: 1;" transform="translate(924.075,0) rotate(45,0,286.5)">  2023-11 (3.0.20)</text></g></g><g class="yaxislayer-above"><g class="y2tick"><text text-anchor="end" x="537.465" y="4.199999999999999" transform="translate(0,272.91999999999996)" style="font-family: 'Open Sans', verdana, arial, sans-serif; font-size: 12px; fill: rgb(42, 63, 95); fill-opacity: 1; white-space: pre; opacity: 1;">0</text></g><g class="y2tick"><text text-anchor="end" x="537.465" y="4.199999999999999" style="font-family: 'Open Sans', verdana, arial, sans-serif; font-size: 12px; fill: rgb(42, 63, 95); fill-opacity: 1; white-space: pre; opacity: 1;" transform="translate(0,226.47)">200k</text></g><g class="y2tick"><text text-anchor="end" x="537.465" y="4.199999999999999" style="font-family: 'Open Sans', verdana, arial, sans-serif; font-size: 12px; fill: rgb(42, 63, 95); fill-opacity: 1; white-space: pre; opacity: 1;" transform="translate(0,180.01999999999998)">400k</text></g><g class="y2tick"><text text-anchor="end" x="537.465" y="4.199999999999999" style="font-family: 'Open Sans', verdana, arial, sans-serif; font-size: 12px; fill: rgb(42, 63, 95); fill-opacity: 1; white-space: pre; opacity: 1;" transform="translate(0,133.57)">600k</text></g><g class="y2tick"><text text-anchor="end" x="537.465" y="4.199999999999999" style="font-family: 'Open Sans', verdana, arial, sans-serif; font-size: 12px; fill: rgb(42, 63, 95); fill-opacity: 1; white-space: pre; opacity: 1;" transform="translate(0,87.12)">800k</text></g></g><g class="overaxes-above"/></g><g class="subplot x3y3"><g class="layer-subplot"><g class="shapelayer"/><g class="imagelayer"/></g><g class="minor-gridlayer"><g class="x3"/><g class="y3"/></g><g class="gridlayer"><g class="x3"><path class="x3grid crisp" transform="translate(1050.21,0)" d="M0,81v199" style="stroke: rgb(255, 255, 255); stroke-opacity: 1; stroke-width: 1px;"/><path class="x3grid crisp" transform="translate(1092.65,0)" d="M0,81v199" style="stroke: rgb(255, 255, 255); stroke-opacity: 1; stroke-width: 1px;"/><path class="x3grid crisp" transform="translate(1120.47,0)" d="M0,81v199" style="stroke: rgb(255, 255, 255); stroke-opacity: 1; stroke-width: 1px;"/><path class="x3grid crisp" transform="translate(1144.24,0)" d="M0,81v199" style="stroke: rgb(255, 255, 255); stroke-opacity: 1; stroke-width: 1px;"/><path class="x3grid crisp" transform="translate(1194.6000000000001,0)" d="M0,81v199" style="stroke: rgb(255, 255, 255); stroke-opacity: 1; stroke-width: 1px;"/><path class="x3grid crisp" transform="translate(1235.74,0)" d="M0,81v199" style="stroke: rgb(255, 255, 255); stroke-opacity: 1; stroke-width: 1px;"/><path class="x3grid crisp" transform="translate(1258.2,0)" d="M0,81v199" style="stroke: rgb(255, 255, 255); stroke-opacity: 1; stroke-width: 1px;"/><path class="x3grid crisp" transform="translate(1283.45,0)" d="M0,81v199" style="stroke: rgb(255, 255, 255); stroke-opacity: 1; stroke-width: 1px;"/><path class="x3grid crisp" transform="translate(1331.16,0)" d="M0,81v199" style="stroke: rgb(255, 255, 255); stroke-opacity: 1; stroke-width: 1px;"/><path class="x3grid crisp" transform="translate(1365.5500000000002,0)" d="M0,81v199" style="stroke: rgb(255, 255, 255); stroke-opacity: 1; stroke-width: 1px;"/></g><g class="y3"><path class="y3grid crisp" transform="translate(0,217.93)" d="M1036.93,0h385.60500000000013" style="stroke: rgb(255, 255, 255); stroke-opacity: 1; stroke-width: 1px;"/><path class="y3grid crisp" transform="translate(0,159.06)" d="M1036.93,0h385.60500000000013" style="stroke: rgb(255, 255, 255); stroke-opacity: 1; stroke-width: 1px;"/><path class="y3grid crisp" transform="translate(0,100.19)" d="M1036.93,0h385.60500000000013" style="stroke: rgb(255, 255, 255); stroke-opacity: 1; stroke-width: 1px;"/></g></g><g class="zerolinelayer"><path class="y3zl zl crisp" transform="translate(0,276.8)" d="M1036.93,0h385.60500000000013" style="stroke: rgb(255, 255, 255); stroke-opacity: 1; stroke-width: 2px;"/></g><path class="xlines-below"/><path class="ylines-below"/><g class="overlines-below"/><g class="xaxislayer-below"/><g class="yaxislayer-below"/><g class="overaxes-below"/><g class="plot" transform="translate(1036.93,81)" clip-path="url(#clipdc02a9x3y3plot)"><g class="scatterlayer mlayer"><g class="trace scatter trace0e16e2" style="stroke-miterlimit: 2; opacity: 1;"><g class="fills"/><g class="errorbars"/><g class="lines"><path class="js-line" d="M0,189.05L5.31,188.91L6.66,188.08L8.01,186.45L9.27,186.92L10.62,183.79L11.93,183.42L13.28,183.3L14.58,179.52L21.24,178.31L22.59,179.01L25.16,176.87L26.51,174.23L29.17,171.36L30.47,170.84L35.83,170.23L37.13,168.29L38.48,168.73L39.83,167.59L41.05,167.14L42.4,161.8L43.71,162.96L45.06,163.04L47.71,160.69L49.06,160.58L51.72,157.13L53.02,153.99L56.94,150.38L58.29,143.76L59.6,138.69L60.94,138.71L62.25,138.83L63.6,141.89L66.26,141.26L67.6,143.55L70.26,141L71.61,130.8L72.87,130.52L74.22,129.34L76.88,126.57L78.18,127.73L79.53,123.82L80.88,129.81L82.19,127.69L83.54,127.69L84.84,126.57L86.19,127.37L87.54,124.22L88.76,123.94L92.77,121.35L94.07,117.95L95.42,117.34L96.77,117.59L99.43,116.05L100.73,113.26L104.65,109.19L106,108.38L109.96,106.22L111.31,104.45L115.32,99.76L116.62,101.2L120.54,99.86L121.89,98.29L124.54,96.21L125.85,95.47L127.2,94.97L128.55,91.65L129.86,90.58L131.2,86.9L133.86,85.44L135.21,83.42L136.47,80.02L137.82,79.56L139.13,78.83L140.48,79.04L141.78,76.36L143.13,76.27L148.44,72.56L149.79,71.26L151.14,71.61L152.36,70.34L155.02,70.36L156.37,68.47L159.02,66.98L160.37,67.49L164.33,65.52L165.68,66.66L168.25,71.86L169.6,71.88L170.91,72.7L172.26,72.62L174.91,71.3L176.26,71.3L177.57,70.29L178.92,74.58L180.22,72.73L181.57,72.12L184.14,71.07L185.49,70.75L189.45,67L190.8,66.86L193.46,67L194.8,64.4L198.81,63.02L200.07,62.65L204.08,62.34L205.38,65.32L206.73,66.27L208.08,65.88L210.74,64.41L212.04,64.4L213.39,64.24L214.74,64.91L215.96,64.88L217.31,66.11L218.62,67.8L219.97,67.05L226.63,66.06L227.93,65.31L231.85,62.91L233.2,62.73L234.51,63.35L235.86,63.1L238.51,62.51L239.86,62.13L249.09,60.23L250.4,59.83L253.05,58.75L254.4,60.5L257.06,59.95L258.4,58.36L259.71,58.57L261.06,56.68L262.41,56.11L263.67,54.52L267.68,53.21L268.98,52.28L271.68,52.14L272.99,51.51L275.64,51.07L276.99,51.25L278.34,50.98L279.56,51.8L283.57,51.27L284.87,49.88L287.57,48.99L288.88,48.51L292.88,48.1L294.23,47.89L295.45,48.68L296.8,48.54L302.11,48.4L303.46,46.65L306.12,45.18L307.42,39.53L312.69,38.68L314,38.31L315.34,39.27L316.65,38.77L320.66,36.69L322,35.78L323.31,35.59L324.66,36.28L327.27,34.97L328.62,34.39L341.94,28.73L343.16,27.67L348.47,25.49L349.82,25.66L352.48,24.53L353.83,23.82L357.83,21.3L359.05,21L361.71,19.41L363.06,18.84L365.71,18L367.06,17.4L372.37,15.09L373.72,13.66L378.94,12.28L380.25,11.89L385.61,9.95" style="vector-effect: none; fill: none; stroke: rgb(0, 0, 0); stroke-opacity: 1; stroke-width: 2px; opacity: 1;"/></g><g class="points"/><g class="text"/></g></g></g><g class="overplot"/><path class="xlines-above crisp" d="M0,0" style="fill: none;"/><path class="ylines-above crisp" d="M0,0" style="fill: none;"/><g class="overlines-above"/><g class="xaxislayer-above"><g class="x3tick"><text text-anchor="start" x="0" y="292" transform="translate(1050.21,0) rotate(45,0,286.5)" style="font-family: 'Open Sans', verdana, arial, sans-serif; font-size: 11px; fill: rgb(42, 63, 95); fill-opacity: 1; white-space: pre; opacity: 1;">  2000-06 (0.1.99a)</text></g><g class="x3tick"><text text-anchor="start" x="0" y="292" style="font-family: 'Open Sans', verdana, arial, sans-serif; font-size: 11px; fill: rgb(42, 63, 95); fill-opacity: 1; white-space: pre; opacity: 1;" transform="translate(1092.65,0) rotate(45,0,286.5)">  2003-02 (0.5)</text></g><g class="x3tick"><text text-anchor="start" x="0" y="292" style="font-family: 'Open Sans', verdana, arial, sans-serif; font-size: 11px; fill: rgb(42, 63, 95); fill-opacity: 1; white-space: pre; opacity: 1;" transform="translate(1120.47,0) rotate(45,0,286.5)">  2004-11 (0.8)</text></g><g class="x3tick"><text text-anchor="start" x="0" y="292" style="font-family: 'Open Sans', verdana, arial, sans-serif; font-size: 11px; fill: rgb(42, 63, 95); fill-opacity: 1; white-space: pre; opacity: 1;" transform="translate(1144.24,0) rotate(45,0,286.5)">  2006-05 (0.8.5)</text></g><g class="x3tick"><text text-anchor="start" x="0" y="292" style="font-family: 'Open Sans', verdana, arial, sans-serif; font-size: 11px; fill: rgb(42, 63, 95); fill-opacity: 1; white-space: pre; opacity: 1;" transform="translate(1194.6000000000001,0) rotate(45,0,286.5)">  2009-07 (1.0)</text></g><g class="x3tick"><text text-anchor="start" x="0" y="292" style="font-family: 'Open Sans', verdana, arial, sans-serif; font-size: 11px; fill: rgb(42, 63, 95); fill-opacity: 1; white-space: pre; opacity: 1;" transform="translate(1235.74,0) rotate(45,0,286.5)">  2012-02 (2.0)</text></g><g class="x3tick"><text text-anchor="start" x="0" y="292" style="font-family: 'Open Sans', verdana, arial, sans-serif; font-size: 11px; fill: rgb(42, 63, 95); fill-opacity: 1; white-space: pre; opacity: 1;" transform="translate(1258.2,0) rotate(45,0,286.5)">  2013-07 (2.1)</text></g><g class="x3tick"><text text-anchor="start" x="0" y="292" style="font-family: 'Open Sans', verdana, arial, sans-serif; font-size: 11px; fill: rgb(42, 63, 95); fill-opacity: 1; white-space: pre; opacity: 1;" transform="translate(1283.45,0) rotate(45,0,286.5)">  2015-02 (2.2)</text></g><g class="x3tick"><text text-anchor="start" x="0" y="292" style="font-family: 'Open Sans', verdana, arial, sans-serif; font-size: 11px; fill: rgb(42, 63, 95); fill-opacity: 1; white-space: pre; opacity: 1;" transform="translate(1331.16,0) rotate(45,0,286.5)">  2018-02 (3.0)</text></g><g class="x3tick"><text text-anchor="start" x="0" y="292" style="font-family: 'Open Sans', verdana, arial, sans-serif; font-size: 11px; fill: rgb(42, 63, 95); fill-opacity: 1; white-space: pre; opacity: 1;" transform="translate(1365.5500000000002,0) rotate(45,0,286.5)">  2020-04 (3.0.10)</text></g><g class="x3tick"><text text-anchor="start" x="0" y="292" style="font-family: 'Open Sans', verdana, arial, sans-serif; font-size: 11px; fill: rgb(42, 63, 95); fill-opacity: 1; white-space: pre; opacity: 1;" transform="translate(1422.54,0) rotate(45,0,286.5)">  2023-11 (3.0.20)</text></g></g><g class="yaxislayer-above"><g class="y3tick"><text text-anchor="end" x="1035.93" y="4.199999999999999" transform="translate(0,276.8)" style="font-family: 'Open Sans', verdana, arial, sans-serif; font-size: 12px; fill: rgb(42, 63, 95); fill-opacity: 1; white-space: pre; opacity: 1;">0</text></g><g class="y3tick"><text text-anchor="end" x="1035.93" y="4.199999999999999" style="font-family: 'Open Sans', verdana, arial, sans-serif; font-size: 12px; fill: rgb(42, 63, 95); fill-opacity: 1; white-space: pre; opacity: 1;" transform="translate(0,217.93)">50k</text></g><g class="y3tick"><text text-anchor="end" x="1035.93" y="4.199999999999999" style="font-family: 'Open Sans', verdana, arial, sans-serif; font-size: 12px; fill: rgb(42, 63, 95); fill-opacity: 1; white-space: pre; opacity: 1;" transform="translate(0,159.06)">100k</text></g><g class="y3tick"><text text-anchor="end" x="1035.93" y="4.199999999999999" style="font-family: 'Open Sans', verdana, arial, sans-serif; font-size: 12px; fill: rgb(42, 63, 95); fill-opacity: 1; white-space: pre; opacity: 1;" transform="translate(0,100.19)">150k</text></g></g><g class="overaxes-above"/></g><g class="subplot x4y4"><g class="layer-subplot"><g class="shapelayer"/><g class="imagelayer"/></g><g class="minor-gridlayer"><g class="x4"/><g class="y4"/></g><g class="gridlayer"><g class="x4"><path class="x4grid crisp" transform="translate(1548.6749999999997,0)" d="M0,81v199" style="stroke: rgb(255, 255, 255); stroke-opacity: 1; stroke-width: 1px;"/><path class="x4grid crisp" transform="translate(1591.1149999999998,0)" d="M0,81v199" style="stroke: rgb(255, 255, 255); stroke-opacity: 1; stroke-width: 1px;"/><path class="x4grid crisp" transform="translate(1618.9349999999997,0)" d="M0,81v199" style="stroke: rgb(255, 255, 255); stroke-opacity: 1; stroke-width: 1px;"/><path class="x4grid crisp" transform="translate(1642.7049999999997,0)" d="M0,81v199" style="stroke: rgb(255, 255, 255); stroke-opacity: 1; stroke-width: 1px;"/><path class="x4grid crisp" transform="translate(1693.0649999999998,0)" d="M0,81v199" style="stroke: rgb(255, 255, 255); stroke-opacity: 1; stroke-width: 1px;"/><path class="x4grid crisp" transform="translate(1734.2049999999997,0)" d="M0,81v199" style="stroke: rgb(255, 255, 255); stroke-opacity: 1; stroke-width: 1px;"/><path class="x4grid crisp" transform="translate(1756.6649999999997,0)" d="M0,81v199" style="stroke: rgb(255, 255, 255); stroke-opacity: 1; stroke-width: 1px;"/><path class="x4grid crisp" transform="translate(1781.9149999999997,0)" d="M0,81v199" style="stroke: rgb(255, 255, 255); stroke-opacity: 1; stroke-width: 1px;"/><path class="x4grid crisp" transform="translate(1829.6249999999998,0)" d="M0,81v199" style="stroke: rgb(255, 255, 255); stroke-opacity: 1; stroke-width: 1px;"/><path class="x4grid crisp" transform="translate(1864.0149999999999,0)" d="M0,81v199" style="stroke: rgb(255, 255, 255); stroke-opacity: 1; stroke-width: 1px;"/></g><g class="y4"><path class="y4grid crisp" transform="translate(0,246.52)" d="M1535.3949999999998,0h385.60500000000013" style="stroke: rgb(255, 255, 255); stroke-opacity: 1; stroke-width: 1px;"/><path class="y4grid crisp" transform="translate(0,187.86)" d="M1535.3949999999998,0h385.60500000000013" style="stroke: rgb(255, 255, 255); stroke-opacity: 1; stroke-width: 1px;"/><path class="y4grid crisp" transform="translate(0,129.2)" d="M1535.3949999999998,0h385.60500000000013" style="stroke: rgb(255, 255, 255); stroke-opacity: 1; stroke-width: 1px;"/></g></g><g class="zerolinelayer"/><path class="xlines-below"/><path class="ylines-below"/><g class="overlines-below"/><g class="xaxislayer-below"/><g class="yaxislayer-below"/><g class="overaxes-below"/><g class="plot" transform="translate(1535.3949999999998,81)" clip-path="url(#clipdc02a9x4y4plot)"><g class="scatterlayer mlayer"><g class="trace scatter trace321f2d" style="stroke-miterlimit: 2; opacity: 1;"><g class="fills"/><g class="errorbars"/><g class="lines"><path class="js-line" d="M0,10.08L2.66,10.92L4,9.95L5.31,10.13L6.66,13.1L8.01,79.74L9.27,87.8L10.62,70.43L11.93,72.36L13.28,72.75L14.58,60.16L15.93,61.83L18.59,61.96L19.94,62.48L21.24,61.2L23.94,73.28L25.16,82.94L26.51,96.98L27.82,101.81L29.17,124.65L30.47,126.06L34.48,139.88L35.83,140.06L37.13,141.82L38.48,147.01L41.05,143.86L42.4,121.93L43.71,119.92L45.06,125.94L46.36,123.32L47.71,126.84L49.06,118.13L50.37,118.14L51.72,121.57L53.02,121.96L54.37,126.47L55.72,136.79L56.94,139.21L58.29,144.03L59.6,139.46L60.94,140.96L62.25,146.28L63.6,155.8L66.26,158L67.6,158.78L68.91,160.08L70.26,159.51L71.61,150.28L72.87,151.67L78.18,155.02L79.53,155.31L82.19,160.26L83.54,160.84L84.84,161.81L86.19,163.88L90.11,165.17L91.42,166.05L92.77,166.66L94.07,170.34L95.42,170.45L96.77,166.85L99.43,167.55L100.73,165.91L106,165.68L107.31,165.82L113.97,165.21L115.32,183.58L119.32,184.07L120.54,188.44L124.54,189.05L125.85,189.04L127.2,188.76L128.55,187.08L129.86,186.86L131.2,166.45L135.21,167.77L136.47,166.91L137.82,168.09L139.13,167.97L140.48,168.51L141.78,166.71L148.44,164.97L149.79,164.64L155.02,163.17L156.37,165.24L157.67,173.23L159.02,173.26L160.37,171.04L161.68,170.69L167.03,170.04L168.25,169.04L170.91,169.08L172.26,169.43L174.91,168.91L176.26,168.88L180.22,168.64L181.57,168.76L186.8,168.85L188.14,167.57L190.8,171.42L192.15,171.49L193.46,171.5L194.8,170.54L197.46,171.26L198.81,170.87L202.73,171.77L204.08,172.36L206.73,174.8L208.08,175.44L210.74,175.18L212.04,175.67L217.31,177.76L218.62,177.04L221.27,176.93L222.62,177.41L225.28,177.08L226.63,177.42L229.28,177.79L230.63,177.85L231.85,178.46L233.2,178.25L237.16,178.66L238.51,178.87L243.82,179.08L245.17,179.11L246.52,177.38L247.74,177.35L251.74,177.6L253.05,177.57L254.4,167.36L255.75,167.58L258.4,167.15L259.71,165.92L261.06,166.16L262.41,165.3L263.67,163.07L265.02,163.09L272.99,163.66L274.34,163.57L290.23,164.76L291.53,165.13L302.11,166.3L303.46,165.35L306.12,165.73L307.42,164.27L312.69,164.73L314,164.31L318,165.57L319.35,165.5L326.01,165.49L327.27,165.18L348.47,164.7L349.82,164.39L355.13,163.82L356.48,163.36L360.4,163.64L361.71,163.53L369.72,163.54L371.02,163.67L373.72,164.01L374.94,164.34L382.95,164.32L384.26,164.63L385.61,164.66" style="vector-effect: none; fill: none; stroke: rgb(0, 0, 0); stroke-opacity: 1; stroke-width: 2px; opacity: 1;"/></g><g class="points"/><g class="text"/></g></g></g><g class="overplot"/><path class="xlines-above crisp" d="M0,0" style="fill: none;"/><path class="ylines-above crisp" d="M0,0" style="fill: none;"/><g class="overlines-above"/><g class="xaxislayer-above"><g class="x4tick"><text text-anchor="start" x="0" y="292" transform="translate(1548.6749999999997,0) rotate(45,0,286.5)" style="font-family: 'Open Sans', verdana, arial, sans-serif; font-size: 11px; fill: rgb(42, 63, 95); fill-opacity: 1; white-space: pre; opacity: 1;">  2000-06 (0.1.99a)</text></g><g class="x4tick"><text text-anchor="start" x="0" y="292" style="font-family: 'Open Sans', verdana, arial, sans-serif; font-size: 11px; fill: rgb(42, 63, 95); fill-opacity: 1; white-space: pre; opacity: 1;" transform="translate(1591.1149999999998,0) rotate(45,0,286.5)">  2003-02 (0.5)</text></g><g class="x4tick"><text text-anchor="start" x="0" y="292" style="font-family: 'Open Sans', verdana, arial, sans-serif; font-size: 11px; fill: rgb(42, 63, 95); fill-opacity: 1; white-space: pre; opacity: 1;" transform="translate(1618.9349999999997,0) rotate(45,0,286.5)">  2004-11 (0.8)</text></g><g class="x4tick"><text text-anchor="start" x="0" y="292" style="font-family: 'Open Sans', verdana, arial, sans-serif; font-size: 11px; fill: rgb(42, 63, 95); fill-opacity: 1; white-space: pre; opacity: 1;" transform="translate(1642.7049999999997,0) rotate(45,0,286.5)">  2006-05 (0.8.5)</text></g><g class="x4tick"><text text-anchor="start" x="0" y="292" style="font-family: 'Open Sans', verdana, arial, sans-serif; font-size: 11px; fill: rgb(42, 63, 95); fill-opacity: 1; white-space: pre; opacity: 1;" transform="translate(1693.0649999999998,0) rotate(45,0,286.5)">  2009-07 (1.0)</text></g><g class="x4tick"><text text-anchor="start" x="0" y="292" style="font-family: 'Open Sans', verdana, arial, sans-serif; font-size: 11px; fill: rgb(42, 63, 95); fill-opacity: 1; white-space: pre; opacity: 1;" transform="translate(1734.2049999999997,0) rotate(45,0,286.5)">  2012-02 (2.0)</text></g><g class="x4tick"><text text-anchor="start" x="0" y="292" style="font-family: 'Open Sans', verdana, arial, sans-serif; font-size: 11px; fill: rgb(42, 63, 95); fill-opacity: 1; white-space: pre; opacity: 1;" transform="translate(1756.6649999999997,0) rotate(45,0,286.5)">  2013-07 (2.1)</text></g><g class="x4tick"><text text-anchor="start" x="0" y="292" style="font-family: 'Open Sans', verdana, arial, sans-serif; font-size: 11px; fill: rgb(42, 63, 95); fill-opacity: 1; white-space: pre; opacity: 1;" transform="translate(1781.9149999999997,0) rotate(45,0,286.5)">  2015-02 (2.2)</text></g><g class="x4tick"><text text-anchor="start" x="0" y="292" style="font-family: 'Open Sans', verdana, arial, sans-serif; font-size: 11px; fill: rgb(42, 63, 95); fill-opacity: 1; white-space: pre; opacity: 1;" transform="translate(1829.6249999999998,0) rotate(45,0,286.5)">  2018-02 (3.0)</text></g><g class="x4tick"><text text-anchor="start" x="0" y="292" style="font-family: 'Open Sans', verdana, arial, sans-serif; font-size: 11px; fill: rgb(42, 63, 95); fill-opacity: 1; white-space: pre; opacity: 1;" transform="translate(1864.0149999999999,0) rotate(45,0,286.5)">  2020-04 (3.0.10)</text></g><g class="x4tick"><text text-anchor="start" x="0" y="292" style="font-family: 'Open Sans', verdana, arial, sans-serif; font-size: 11px; fill: rgb(42, 63, 95); fill-opacity: 1; white-space: pre; opacity: 1;" transform="translate(1921.0049999999997,0) rotate(45,0,286.5)">  2023-11 (3.0.20)</text></g></g><g class="yaxislayer-above"><g class="y4tick"><text text-anchor="end" x="1534.3949999999998" y="4.199999999999999" transform="translate(0,246.52)" style="font-family: 'Open Sans', verdana, arial, sans-serif; font-size: 12px; fill: rgb(42, 63, 95); fill-opacity: 1; white-space: pre; opacity: 1;">0.2</text></g><g class="y4tick"><text text-anchor="end" x="1534.3949999999998" y="4.199999999999999" style="font-family: 'Open Sans', verdana, arial, sans-serif; font-size: 12px; fill: rgb(42, 63, 95); fill-opacity: 1; white-space: pre; opacity: 1;" transform="translate(0,187.86)">0.3</text></g><g class="y4tick"><text text-anchor="end" x="1534.3949999999998" y="4.199999999999999" style="font-family: 'Open Sans', verdana, arial, sans-serif; font-size: 12px; fill: rgb(42, 63, 95); fill-opacity: 1; white-space: pre; opacity: 1;" transform="translate(0,129.2)">0.4</text></g></g><g class="overaxes-above"/></g></g><g class="polarlayer"/><g class="smithlayer"/><g class="ternarylayer"/><g class="geolayer"/><g class="funnelarealayer"/><g class="pielayer"/><g class="iciclelayer"/><g class="treemaplayer"/><g class="sunburstlayer"/><g class="glimages"/><defs id="topdefs-dc02a9"><g class="clips"/><clipPath id="legenddc02a9"><rect width="72" height="29" x="0" y="0"/></clipPath></defs><g class="layer-above"><g class="imagelayer"/><g class="shapelayer"/></g><g class="infolayer"><g class="legend" pointer-events="all" transform="translate(944.5,12.20000000000001)"><rect class="bg" shape-rendering="crispEdges" width="72" height="29" x="0" y="0" style="stroke: rgb(68, 68, 68); stroke-opacity: 1; fill: rgb(255, 255, 255); fill-opacity: 1; stroke-width: 0px;"/><g class="scrollbox" transform="" clip-path="url(#legenddc02a9)"><g class="groups" transform=""><g class="traces" transform="translate(0,14.5)" style="opacity: 1;"><text class="legendtext" text-anchor="start" x="40" y="4.680000000000001" style="font-family: 'Open Sans', verdana, arial, sans-serif; font-size: 12px; fill: rgb(42, 63, 95); fill-opacity: 1; white-space: pre;">SUM</text><g class="layers" style="opacity: 1;"><g class="legendfill"/><g class="legendlines"><path class="js-line" d="M5,0h30" style="fill: none; stroke: rgb(0, 0, 0); stroke-opacity: 1; stroke-width: 2px;"/></g><g class="legendsymbols"><g class="legendpoints"/></g></g><rect class="legendtoggle" x="0" y="-9.5" width="68.65625" height="19" style="fill: rgb(0, 0, 0); fill-opacity: 0;"/></g></g></g><rect class="scrollbar" rx="20" ry="3" width="0" height="0" x="0" y="0" style="fill: rgb(128, 139, 164); fill-opacity: 1;"/></g><g class="g-gtitle"/><g class="g-xtitle"/><g class="g-x2title"/><g class="g-x3title"/><g class="g-x4title"/><g class="g-ytitle"/><g class="g-y2title"/><g class="g-y3title"/><g class="g-y4title"/><g class="annotation" data-index="0" style="opacity: 1;"><g class="annotation-text-g" transform="rotate(0,232.8025,68)"><g class="cursor-pointer" transform="translate(171,55)"><rect class="bg" x="0.5" y="0.5" width="122" height="25" style="stroke-width: 1px; stroke: rgb(0, 0, 0); stroke-opacity: 0; fill: rgb(0, 0, 0); fill-opacity: 0;"/><text class="annotation-text" text-anchor="middle" x="61.21875" y="19" style="font-family: 'Open Sans', verdana, arial, sans-serif; font-size: 16px; fill: rgb(42, 63, 95); fill-opacity: 1; white-space: pre;">Number of Files</text></g></g></g><g class="annotation" data-index="1" style="opacity: 1;"><g class="annotation-text-g" transform="rotate(0,731.2675,68)"><g class="cursor-pointer" transform="translate(679,55)"><rect class="bg" x="0.5" y="0.5" width="104" height="25" style="stroke-width: 1px; stroke: rgb(0, 0, 0); stroke-opacity: 0; fill: rgb(0, 0, 0); fill-opacity: 0;"/><text class="annotation-text" text-anchor="middle" x="52.359375" y="19" style="font-family: 'Open Sans', verdana, arial, sans-serif; font-size: 16px; fill: rgb(42, 63, 95); fill-opacity: 1; white-space: pre;">Lines of Code</text></g></g></g><g class="annotation" data-index="2" style="opacity: 1;"><g class="annotation-text-g" transform="rotate(0,1229.7325,68)"><g class="cursor-pointer" transform="translate(1156,55)"><rect class="bg" x="0.5" y="0.5" width="147" height="25" style="stroke-width: 1px; stroke: rgb(0, 0, 0); stroke-opacity: 0; fill: rgb(0, 0, 0); fill-opacity: 0;"/><text class="annotation-text" text-anchor="middle" x="73.890625" y="19" style="font-family: 'Open Sans', verdana, arial, sans-serif; font-size: 16px; fill: rgb(42, 63, 95); fill-opacity: 1; white-space: pre;">Lines of Comments</text></g></g></g><g class="annotation" data-index="3" style="opacity: 1;"><g class="annotation-text-g" transform="rotate(0,1728.1975,68)"><g class="cursor-pointer" transform="translate(1635,55)"><rect class="bg" x="0.5" y="0.5" width="186" height="25" style="stroke-width: 1px; stroke: rgb(0, 0, 0); stroke-opacity: 0; fill: rgb(0, 0, 0); fill-opacity: 0;"/><text class="annotation-text" text-anchor="middle" x="93.359375" y="19" style="font-family: 'Open Sans', verdana, arial, sans-serif; font-size: 16px; fill: rgb(42, 63, 95); fill-opacity: 1; white-space: pre;">Comments to Code ratio</text></g></g></g></g></svg>